<?xml version="1.0" encoding="utf-8"?>
<!-- Generator: Adobe Illustrator 24.0.2, SVG Export Plug-In . SVG Version: 6.00 Build 0)  -->
<svg version="1.1" id="Layer_1" xmlns="http://www.w3.org/2000/svg" xmlns:xlink="http://www.w3.org/1999/xlink" x="0px" y="0px"
	 viewBox="0 0 910 347.2" style="enable-background:new 0 0 910 347.2;" xml:space="preserve">
<style type="text/css">
	.st0{fill:#F7C95A;}
	.st1{fill:#63B182;}
	.st2{fill:#F7F6FA;}
	.st3{fill:#5066AB;}
	.st4{fill:#F8F7FA;}
	.st5{fill:#E8473E;}
	.st6{enable-background:new    ;}
	.st7{fill:#FFFFFF;}
	.st8{stroke:#231F20;stroke-width:0.5;stroke-miterlimit:10;}
</style>
<g>
	<rect x="76.4" y="229.8" class="st0" width="523.3" height="67.2"/>
	<rect x="608.4" y="229.8" class="st1" width="225.2" height="67.2"/>
	<g>
		<g id="HEADING_6_">
			<g id="LOGO_6_">
				<polygon class="st2" points="101.3,71 88.8,105.6 85.2,135.6 105.5,137 89.7,180.8 110.5,212.4 298.9,212.4 298.9,60.4 
					116,60.4 				"/>
				<rect x="204.5" y="73.7" class="st2" width="15.6" height="32.1"/>
				<g>
					<g>
						<path class="st3" d="M196.5,155h16c0-4.1-3-7.4-7.4-7.4C200.2,147.6,197.3,150.1,196.5,155 M225.3,169.1
							c-0.1-0.5-0.1-1.1-0.1-1.6h16c0.1,1.5,0.8,2.8,2,3.9c0.8,0.8,2.5,1.3,4.5,1.3c2.2,0,5.7-0.8,5.7-3.4c0-2.5-1.4-3.3-9.2-4.7
							c-8.2-1.4-13.3-3.6-15.8-7c0.2,1.9,0.4,3.9,0.4,6.1h-32.2c0.4,5,3.3,8.6,8.6,8.6c2.7,0,5.7-1,7-3.1h13.1V169.1z M158.2,149.1
							c-4.7,0-7.1,4.1-7.1,8.7c0,5,1.5,10.8,7.5,10.8c6.2,0,6.9-5.9,6.9-10.8C165.5,152.9,163.1,149.1,158.2,149.1 M139.5,118.5
							v-4.1c-2,1-4.3,1.6-6.6,2.1c-3.7,0.8-5.7,1.8-5.7,4.7c0,2,2.2,4.1,5.2,4.1C136.2,125.4,139.2,123.1,139.5,118.5 M328.9,220.6
							L329,50.3H180h-55.7c-8.7,0-16.5,5.2-19.9,13.3l-3.2,7.7c2-0.3,4.4-0.4,7.1-0.4s5.2,0.3,7.9,0.4v12c-1.4-0.2-2.8-0.6-4.2-0.6
							c-4.2,0-5.7,1.2-5.4,5.5h9.2v6.2c1.1-1.1,2.5-2,4-2.8c4.2-2,9.8-2.5,15-2.5c21,0,20.8,8.7,20.8,17.2v18c0,3,0.2,6.4,1.6,9.1
							V73.7H174v29.2l10.7-12.7h19L188,106.8l18.1,27.4h-20.2l-9-15.9l-3,3.2v12.7h-16.3h-0.4h-16.7c-0.4-1.2-0.7-3-0.6-4.1h-0.2
							c-3.6,4.1-8.7,5.2-14.1,5.2c-8.5,0-15.5-4.1-15.5-13.3c0-13.9,16.3-13.4,24.8-15c2.3-0.4,4.6-1.1,4.6-3.9c0-3-2.8-4.1-5.5-4.1
							c-5.2,0-6.2,2.6-6.3,4.5h-15.6c0.1-1.7,0.4-3.2,0.8-4.5h-6v35.2H89.3v-30l-12.2,33.7h1.1l0,0h24.4l0,0h3.8V161
							c0,5.1,0.6,8.6,5.5,8.6c2.9,0,6.7-1.4,6.7-8.5v-23.2h16.8v11.9c2.4-7.6,8.4-13,17.9-13c4.9,0,9.6,1.9,11.5,6.4h0.2v-5.3h16.8
							v13.9c3.1-8.8,11.1-15,21.8-15c11.9,0,19.1,4.5,22.6,12.7c0.9-10.1,12.2-12.7,20.7-12.7c9.5,0,20.9,2.6,21.3,13.9H253
							c-0.1-1.4-0.8-2.5-1.9-3.3c-1-0.8-2.4-1.3-3.7-1.3c-2.4,0-5.1,0.5-5.1,3.4c0,1.3,1,1.9,1.9,2.3c2.8,1.2,9.1,1.5,14.7,3.4
							c4.5,1.4,8.6,3.9,10,8.6v-25.8h16.8v44h-16.8v-10.3c-2.4,8.8-12.5,11.4-21.8,11.4c-8.6,0-18-2.9-21-10.5
							c-4.2,7.1-12.3,10.5-21,10.5c-11.1,0-20-5.2-23.3-14.5v7.7c0,8.7-2.3,21-22.9,21c-10.4,0-21.4-2.8-23-14.7h16.6
							c0.2,0.4,0.6,1,0.9,1.5c1,1.5,2.8,3.2,4.9,3.2c5.4,0,6.6-6.4,6.6-10.1V173h-0.2c-2.7,3.9-6.8,6.1-11.8,6.1
							c-9.6,0-15.3-5.3-17.6-12.9v15.5h-16.2v-5.6h0.1c-3.1,4.4-7.6,6.7-14.3,6.7c-5.5,0-10.7-2.4-13.3-7.2l-15.2,44.9l103.7,0.1
							L328.9,220.6z M220.1,87.6c0,9-2,16.3-15.6,18.2v-7.4c5-0.6,6.9-3.6,6.9-8h-6.9V73.7h15.6V87.6z"/>
					</g>
				</g>
			</g>
		</g>
		<g>
			<path class="st4" d="M342,72.5h10l1.7,5h4.6l-9.8-26.1h-3.1l-9.8,26.1h4.6L342,72.5z M347,58.1l3.6,10.3h-7.2L347,58.1z"/>
			<polygon class="st4" points="364.4,66.8 374.9,66.8 374.9,62.7 364.4,62.7 364.4,55.5 376.9,55.5 376.9,51.4 364.4,51.4 
				361.9,51.4 360.1,51.4 360.1,77.5 364.4,77.5 			"/>
			<path class="st4" d="M383.1,66.9h4.3l5.6,10.6h5.2l-6-11c0.5-0.2,1-0.4,1.4-0.6c1.1-0.6,2-1.5,2.6-2.7c0.6-1.1,0.9-2.5,0.9-4
				s-0.3-2.8-0.9-4s-1.5-2-2.6-2.7s-2.4-1-3.9-1h-6.6v-0.1h-4.3v26.1h4.3V66.9z M389.6,55.6c0.6,0,1.1,0.1,1.6,0.4
				c0.5,0.2,0.8,0.7,1.1,1.2c0.3,0.6,0.4,1.2,0.4,1.9s-0.1,1.4-0.4,1.9s-0.6,0.9-1.1,1.2s-1,0.4-1.6,0.4h-6.5v-7
				C383.1,55.6,389.6,55.6,389.6,55.6z"/>
			<rect x="400.7" y="51.4" class="st4" width="4.4" height="26.1"/>
			<path class="st4" d="M422.1,76.8c1.3-0.7,2.4-1.6,3.2-2.9c0.9-1.3,1.5-2.8,1.8-4.5h-4.4c-0.2,0.8-0.5,1.6-1,2.2s-1.1,1.1-1.7,1.4
				s-1.3,0.5-2.1,0.5c-1,0-1.9-0.3-2.6-0.7c-0.7-0.4-1.3-1.1-1.7-1.9c-0.4-0.8-0.6-1.8-0.6-2.9v-7.2c0-1.1,0.2-2.1,0.6-2.9
				c0.4-0.8,1-1.5,1.7-1.9c0.7-0.5,1.6-0.7,2.6-0.7c0.8,0,1.5,0.2,2.1,0.5c0.7,0.3,1.3,0.8,1.7,1.4c0.4,0.6,0.8,1.4,1,2.2h4.4
				c-0.3-1.7-0.9-3.2-1.7-4.5c-0.9-1.3-1.9-2.2-3.2-2.9s-2.7-1-4.3-1c-1.9,0-3.5,0.4-4.9,1.2s-2.5,1.9-3.2,3.4s-1.1,3.2-1.1,5.2V68
				c0,2,0.4,3.7,1.1,5.2s1.8,2.6,3.2,3.4c1.4,0.8,3.1,1.2,4.9,1.2C419.4,77.8,420.8,77.5,422.1,76.8z"/>
			<path class="st4" d="M434,72.5h10l1.7,5h4.6l-9.8-26.1h-3.1l-9.8,26.1h4.6L434,72.5z M439,58.1l3.6,10.3h-7.2L439,58.1z"/>
			<polygon class="st4" points="456.3,58.4 467.1,77.5 471.8,77.5 471.8,51.4 467.6,51.4 467.6,70.8 456.8,51.4 452.1,51.4 
				452.1,51.4 452.1,77.5 456.3,77.5 			"/>
			<path class="st4" d="M498,52.5c-1.5-0.7-3.4-1.1-5.5-1.1h-4.2h-1.8H484v26.1h2.6h1.7h4.3c2.1,0,4-0.4,5.5-1.1s2.6-1.8,3.4-3.2
				c0.8-1.4,1.2-3.1,1.2-5v-7.4c0-2-0.4-3.7-1.2-5.1C500.7,54.3,499.5,53.2,498,52.5z M498.2,68.3c0,1.7-0.5,2.9-1.5,3.8
				s-2.3,1.3-4.1,1.3h-4.3V55.5h4.3c1.8,0,3.1,0.4,4.1,1.3s1.5,2.2,1.5,3.8V68.3z"/>
			<rect x="506.1" y="51.4" class="st4" width="4.4" height="26.1"/>
			<path class="st4" d="M523.9,67.5h4.6v0.8c0,1.1-0.2,2.1-0.6,2.9c-0.4,0.8-1,1.4-1.7,1.8c-0.8,0.4-1.6,0.6-2.6,0.6
				s-1.8-0.2-2.6-0.6s-1.4-1-1.8-1.7c-0.4-0.8-0.6-1.6-0.6-2.6V61c0-1,0.2-2,0.6-2.8c0.4-0.8,0.9-1.4,1.7-1.9s1.6-0.7,2.6-0.7
				c0.6,0,1.3,0.1,1.9,0.4s1.1,0.7,1.6,1.2s0.8,1.1,1,1.8h4.6c-0.4-1.6-0.9-2.9-1.8-4.1c-0.8-1.2-1.9-2.1-3.2-2.7
				c-1.3-0.7-2.7-1-4.2-1c-1.9,0-3.5,0.4-4.9,1.2c-1.4,0.8-2.5,1.9-3.3,3.4S514,59,514,60.9v7.7c0,1.8,0.4,3.4,1.2,4.8
				c0.8,1.4,1.9,2.4,3.3,3.2c1.4,0.7,3,1.1,4.9,1.1s3.5-0.4,4.9-1.2s2.5-1.9,3.3-3.4s1.2-3.2,1.2-5.1v-4.6h-8.9V67.5z"/>
			<rect x="536.3" y="51.4" class="st4" width="4.4" height="26.1"/>
			<polygon class="st4" points="560,55.5 560,51.4 541.2,51.4 541.2,55.5 548.5,55.5 548.5,77.5 552.8,77.5 552.8,55.5 			"/>
			<path class="st4" d="M568,51.4l-9.8,26.1h4.6l1.8-5h10l1.7,5h4.6l-9.8-26.1H568z M566,68.4l3.6-10.3l3.6,10.3H566z"/>
			<polygon class="st4" points="586.9,73.4 586.9,51.4 582.6,51.4 582.6,77.5 584.6,77.5 586.9,77.5 599.7,77.5 599.7,73.4 			"/>
			<rect x="337.9" y="85.2" class="st4" width="4.4" height="26.1"/>
			<polygon class="st4" points="361.9,104.6 351.1,85.2 346.4,85.2 346.4,111.2 350.6,111.2 350.6,92.2 361.4,111.3 366.1,111.3 
				366.1,85.2 361.9,85.2 			"/>
			<polygon class="st4" points="385.3,111.3 390,111.3 390,85.2 385.8,85.2 385.8,104.6 375,85.2 370.3,85.2 370.3,85.2 
				370.3,111.2 374.5,111.2 374.5,92.2 			"/>
			<path class="st4" d="M398.1,86c-1.4,0.8-2.5,1.9-3.3,3.4s-1.2,3.2-1.2,5.1v7.3c0,2,0.4,3.6,1.2,5.1s1.9,2.6,3.3,3.4
				s3.1,1.2,4.9,1.3c1.9,0,3.5-0.4,4.9-1.2c1.4-0.8,2.5-1.9,3.3-3.4s1.2-3.2,1.2-5.1v-7.4c0-2-0.4-3.6-1.2-5.1s-1.9-2.6-3.3-3.4
				s-3-1.2-4.9-1.2S399.5,85.2,398.1,86z M407.3,91.6c0.4,0.8,0.6,1.8,0.6,2.8v7.6c0,1.1-0.2,2-0.6,2.8s-1,1.4-1.7,1.8
				c-0.7,0.5-1.6,0.7-2.6,0.6c-1,0-1.9-0.2-2.6-0.6s-1.3-1-1.7-1.8c-0.4-0.8-0.6-1.8-0.6-2.8v-7.6c0-1.1,0.2-2,0.6-2.8
				s1-1.4,1.7-1.8c0.8-0.4,1.6-0.6,2.6-0.6s1.9,0.2,2.6,0.6S406.9,90.8,407.3,91.6z"/>
			<polygon class="st4" points="423.8,104.1 417.9,85.2 413.4,85.2 421.9,111.3 425.6,111.3 434.2,85.2 429.7,85.2 			"/>
			<path class="st4" d="M439.6,106.3h10l1.8,5h4.6l-9.8-26.1h-3.1l-9.8,26.1h4.6L439.6,106.3z M444.6,91.9l3.6,10.3H441L444.6,91.9z
				"/>
			<polygon class="st4" points="465.8,111.3 465.8,89.3 473,89.3 473,85.2 454.2,85.2 454.2,89.3 461.5,89.3 461.5,111.3 			"/>
			<rect x="473.5" y="85.2" class="st4" width="4.4" height="26.1"/>
			<path class="st4" d="M495.7,86c-1.4-0.8-3-1.2-4.9-1.2s-3.5,0.4-4.9,1.2c-1.4,0.8-2.5,1.9-3.3,3.4s-1.2,3.2-1.2,5.1v7.3
				c0,2,0.4,3.6,1.2,5.1s1.9,2.6,3.3,3.4s3,1.3,4.9,1.3s3.5-0.4,4.9-1.2c1.4-0.8,2.5-1.9,3.3-3.4s1.2-3.2,1.2-5.1v-7.4
				c0-2-0.4-3.6-1.2-5.1S497.1,86.8,495.7,86z M495.7,102c0,1.1-0.2,2-0.6,2.8s-1,1.4-1.7,1.8c-0.8,0.5-1.6,0.6-2.6,0.6
				s-1.9-0.2-2.6-0.6s-1.3-1-1.7-1.8c-0.4-0.8-0.6-1.8-0.6-2.8v-7.6c0-1.1,0.2-2,0.6-2.8s1-1.4,1.7-1.8c0.8-0.4,1.6-0.6,2.6-0.6
				s1.9,0.2,2.6,0.6s1.3,1,1.7,1.8c0.4,0.8,0.6,1.8,0.6,2.8V102z"/>
			<polygon class="st4" points="519.3,104.6 508.5,85.2 503.8,85.2 503.8,85.2 503.8,111.2 508,111.2 508,92.2 518.8,111.3 
				523.5,111.3 523.5,85.2 519.3,85.2 			"/>
			<polygon class="st4" points="339.9,118.9 338.1,118.9 338.1,145 342.4,145 342.4,134.4 352.9,134.4 352.9,130.3 342.4,130.3 
				342.4,123 354.9,123 354.9,118.9 342.4,118.9 			"/>
			<polygon class="st4" points="358.6,118.9 356.8,118.9 356.8,145 358.6,145 361.1,145 373.9,145 373.9,140.9 361.1,140.9 
				361.1,134.1 372,134.1 372,130 361.1,130 361.1,123 373.9,123 373.9,118.9 361.1,118.9 			"/>
			<path class="st4" d="M394.2,121.5c-0.8-0.6-1.6-1.1-2.5-1.4c-0.9-0.4-1.9-0.7-2.8-0.9c-0.9-0.2-1.9-0.3-2.8-0.3
				c-2,0-3.7,0.3-5.1,0.9s-2.5,1.5-3.2,2.7c-0.7,1.1-1.1,2.5-1.1,4.2c0,1.8,0.4,3.3,1.2,4.3c0.8,1,1.8,1.7,2.9,2.1s2.6,0.7,4.3,1
				l0.3,0.1h0.1h0.1c1.1,0.2,2,0.4,2.7,0.6s1.3,0.5,1.7,1c0.4,0.5,0.6,1.1,0.6,1.9c0,1.1-0.4,2-1.4,2.6s-2.4,0.9-4.1,0.9
				c-1.4,0-2.7-0.3-4-0.7s-2.4-1-3.4-1.9l-2.3,3.4c0.9,0.7,1.8,1.3,2.8,1.8s2,0.9,3.2,1.1c1.1,0.3,2.3,0.4,3.5,0.5
				c2.1,0,3.8-0.3,5.3-0.9c1.4-0.6,2.5-1.4,3.3-2.6c0.7-1.2,1.1-2.6,1.1-4.2c0-1.7-0.4-3.1-1.1-4.1s-1.6-1.7-2.7-2.2
				c-1-0.5-2.4-0.9-4-1.2c-0.1,0-0.1,0-0.2,0s-0.1,0-0.2,0h-0.1h-0.1c-1.2-0.2-2.2-0.5-2.9-0.7c-0.7-0.3-1.3-0.6-1.8-1.1
				s-0.7-1.2-0.7-2c0-1.1,0.5-2,1.4-2.6s2.1-0.9,3.8-0.9c1,0,2.1,0.2,3.1,0.6c1.1,0.3,2.1,0.9,3.1,1.6l2-3.3v1.2h7.2v22.1h4.3V123
				h7.3v-4.1h-18.8V121.5z"/>
			<rect x="413.4" y="118.9" class="st4" width="4.4" height="26.1"/>
			<polygon class="st4" points="435.5,118.9 429.6,137.8 423.7,118.9 419.2,118.9 427.7,145 431.4,145 440,118.9 			"/>
			<path class="st4" d="M448.9,118.9l-9.8,26.1h4.6l1.7-4.9h10.1l1.7,4.9h4.6l-9.8-26.1H448.9z M446.8,136l3.6-10.4L454,136H446.8z"
				/>
			<polygon class="st4" points="467.9,118.9 463.6,118.9 463.6,145 465.6,145 467.9,145 480.7,145 480.7,140.9 467.9,140.9 			"/>
		</g>
		<g id="DATE_1_">
			<rect x="337.9" y="153.9" class="st5" width="209" height="67.2"/>
			<g class="st6">
				<path class="st7" d="M390.7,185.3c-1.8,1.8-3.9,3.2-6.4,4.1c-2.4,0.9-5.5,1.9-9.2,2.9c-2.5,0.6-4.3,1.2-5.6,1.6
					c-1.3,0.5-2.1,1-2.5,1.6h25.8v9.9h-41.9v-5.7c0-2.8,0.9-5.1,2.6-6.9c1.8-1.8,3.8-3.3,6.2-4.3c2.4-1,5.5-2.1,9.3-3.3
					c2.4-0.7,4.3-1.3,5.6-1.8c1.4-0.5,2.5-1.1,3.4-1.8c0.9-0.7,1.3-1.5,1.3-2.4c0-1.1-0.4-2-1.3-2.5c-0.9-0.6-2.4-0.9-4.5-0.9
					c-5.5,0-8.2,1.8-8.2,5.5h-13.9c0.5-4.9,2.8-8.5,6.9-10.8c4.1-2.3,9.3-3.5,15.6-3.5c6,0,10.8,1,14.2,3c3.5,2,5.2,4.8,5.2,8.5
					C393.4,181.1,392.5,183.5,390.7,185.3z"/>
				<path class="st7" d="M407.2,204c-3.5-1.7-6.1-4-7.9-7s-2.7-6.5-2.7-10.3c0-3.8,0.9-7.3,2.7-10.3c1.8-3,4.4-5.3,7.9-7
					c3.5-1.7,7.6-2.5,12.4-2.5s8.9,0.8,12.4,2.5c3.5,1.7,6.1,4,7.9,7s2.7,6.4,2.7,10.3s-0.9,7.3-2.7,10.3c-1.8,3-4.4,5.3-7.9,7
					c-3.5,1.7-7.6,2.5-12.4,2.5S410.7,205.6,407.2,204z M426.8,193.6c1.7-1.6,2.5-3.9,2.5-7s-0.8-5.4-2.5-7s-4-2.4-7.1-2.4
					s-5.5,0.8-7.1,2.3c-1.7,1.6-2.5,3.9-2.5,7s0.8,5.4,2.5,7s4,2.4,7.1,2.4C422.7,196.1,425.1,195.3,426.8,193.6z"/>
				<path class="st7" d="M485.1,185.3c-1.8,1.8-3.9,3.2-6.4,4.1c-2.4,0.9-5.5,1.9-9.2,2.9c-2.5,0.6-4.3,1.2-5.6,1.6
					c-1.3,0.5-2.1,1-2.5,1.6h25.8v9.9h-41.9v-5.7c0-2.8,0.9-5.1,2.6-6.9c1.8-1.8,3.8-3.3,6.2-4.3c2.4-1,5.5-2.1,9.3-3.3
					c2.4-0.7,4.3-1.3,5.6-1.8s2.5-1.1,3.4-1.8c0.9-0.7,1.3-1.5,1.3-2.4c0-1.1-0.4-2-1.3-2.5c-0.9-0.6-2.4-0.9-4.5-0.9
					c-5.5,0-8.2,1.8-8.2,5.5h-13.9c0.5-4.9,2.8-8.5,6.9-10.8c4.1-2.3,9.3-3.5,15.6-3.5c6,0,10.8,1,14.2,3c3.5,2,5.2,4.8,5.2,8.5
					C487.9,181.1,486.9,183.5,485.1,185.3z"/>
				<path class="st7" d="M531.9,185.3c-1.8,1.8-3.9,3.2-6.4,4.1c-2.4,0.9-5.5,1.9-9.2,2.9c-2.5,0.6-4.3,1.2-5.6,1.6
					c-1.3,0.5-2.1,1-2.5,1.6H534v9.9h-41.8v-5.7c0-2.8,0.9-5.1,2.6-6.9c1.8-1.8,3.8-3.3,6.2-4.3c2.4-1,5.5-2.1,9.3-3.3
					c2.4-0.7,4.3-1.3,5.6-1.8c1.3-0.5,2.5-1.1,3.4-1.8c0.9-0.7,1.3-1.5,1.3-2.4c0-1.1-0.4-2-1.3-2.5c-0.9-0.6-2.4-0.9-4.5-0.9
					c-5.5,0-8.2,1.8-8.2,5.5h-13.9c0.5-4.9,2.8-8.5,6.9-10.8c4.1-2.3,9.3-3.5,15.6-3.5c6,0,10.8,1,14.2,3c3.5,2,5.2,4.8,5.2,8.5
					C534.7,181.1,533.8,183.5,531.9,185.3z"/>
			</g>
		</g>
	</g>
	<g>
		<path class="st4" d="M812.1,119.7c-0.5,1.2-0.4,2.5-0.7,3.7c-0.7,3.2-1.9,6.1-4.3,8.4c-1.7,1.7-3.7,2.7-6.1,2.9
			c-2.5,0.2-5,0-7.2-1.4c-2.2-1.3-3.6-3.3-4.4-5.7c-1.6-4.6-1.7-9.4-0.9-14.2c0.4-2.4,1.2-4.6,2.5-6.7c2.2-3.4,5.3-5.2,9.3-5.2
			c2.1,0,4.2,0.4,6.1,1.7c1.9,1.3,3.1,3,3.9,5.1c0.7,1.8,1.1,3.6,1.3,5.6c0,0.5-0.1,1,0.3,1.4C812.1,116.7,812.1,118.2,812.1,119.7z
			 M804.7,113.1c-0.2-1.4-0.6-2.5-1.2-3.6c-0.8-1.4-1.9-2.2-3.4-2.3c-1.7,0-2.9,0.8-3.7,2.3c-1.4,2.6-1.4,5.4-1.5,8.6
			C798.3,116.4,801.5,114.8,804.7,113.1z M795.6,123.4c0.3,1.5,0.7,2.8,1.5,3.9s1.8,1.7,3.2,1.7c2-0.1,3.1-1.2,3.8-2.9
			c0.7-1.7,1-3.5,1-5.3c0-0.7,0.2-1.4-0.2-2.2C801.8,120.2,798.7,121.8,795.6,123.4z"/>
		<path class="st4" d="M629.9,221.3c0-0.4-0.1-0.7,0.2-1.2c60.5,0,121.1,0,181.7,0c0.2,0.4,0.2,0.8,0.1,1.2
			C751.2,221.3,690.5,221.3,629.9,221.3z"/>
		<path class="st4" d="M641.7,128.6c2,0,3.8,0,5.7,0c0.2-2,0-3.9,0.2-5.8c2-0.3,3.9,0,5.7-0.2c0.3-1.3,0.4-16.2,0.1-18
			c-1.9-0.3-3.8,0-5.8-0.2c0-3.9,0-7.7,0-11.7c-2-0.3-3.9,0-5.8-0.2c-0.2-1.3-0.1-2.6-0.1-3.9s0-2.6,0-3.8c0-1.3,0.1-2.6-0.1-4
			c-1.9-0.4-3.8,0-5.8-0.3c0-5.9,0-11.6,0-17.5c1.9-0.3,3.8,0,5.7-0.2c0.5-1.9,0-3.8,0.3-5.8c1.8-0.1,3.7-0.1,5.6,0
			c0,3.9,0,7.7,0,11.6c-1.9,0.3-3.8,0-5.6,0.2c-0.3,1.2-0.4,4.1-0.1,6c1.8,0.3,3.8,0,5.8,0.2c0,1.9,0,3.8,0,5.8c2,0.3,4,0,6,0.2
			c0,1.8,0,3.7,0,5.6c2,0.4,3.9,0,5.9,0.3c0.1,3.9,0,7.9,0.1,11.9c2,0,3.9,0,5.7,0c0.3,1.4,0.4,25.4,0.2,29.6
			c-1.9,0.3-3.8,0-5.8,0.2c-0.3,1.9,0,3.8-0.2,5.9c-1.9,0-3.8,0-5.8,0c0,2.1,0,4,0,5.9c-2,0.3-4,0-5.8,0.2
			c-0.3,1.3-0.4,8.5-0.1,11.8c1.9,0.3,3.9,0,5.9,0.2c0,1.9,0,3.8,0,5.8c2,0.3,3.9,0,6,0.3c0,3.9,0,7.8,0,11.7c2,0,3.9,0,5.9,0
			c0.2,2,0,3.9,0.1,5.9c-7.9,0-15.7,0-23.6,0c-0.3-1.9,0.1-3.9-0.3-5.8c-1.9-0.3-3.8,0-5.8-0.2c0-3.9,0-7.7,0-11.5
			c-1.1-0.4-2.1-0.2-3.1-0.2c-0.9,0-1.9,0-2.9,0c0-6,0-11.8,0-17.8c1.9,0,3.8,0,5.8,0c0.3-2,0-3.9,0.2-6c1.9-0.1,3.8,0,5.8-0.1
			C641.8,132.6,641.5,130.8,641.7,128.6z"/>
		<path class="st4" d="M699.3,118.8c1.6-5.5,3.1-11,4.7-16.6c2.1,0,4.2,0,6.3,0c0.3,1.2,0.5,27.4,0.2,31.6c-1.1,0.3-2.2,0.1-3.3,0.2
			c-1.1,0-2.1,0-3.3,0c-0.2-5.9,0.2-11.8,0.1-17.6c-1.4,3.4-2.1,6.9-3.3,10.4c-1.1,0.2-2.3,0.1-3.5,0.1c-1-3.5-2-7-3-10.5
			c-0.5,5.8,0.2,11.6-0.1,17.6c-2.1,0-4.2,0-6.4,0c0-10.6,0-21.1,0-31.7c2.2,0,4.3,0,6.6,0c1.6,5.5,3.2,11,4.7,16.6
			C699,118.8,699.1,118.8,699.3,118.8z"/>
		<path class="st4" d="M762.3,158.1c0.2,5.8,0.2,11.5,0.3,17.4c-2.3,0-4.4,0-6.7,0c-0.1-5.3,0-10.6-0.1-15.9c0-5.3,0-10.5,0-15.8
			c2.2,0,4.3,0,6.5,0c1.5,3,3,6,4.5,8.9s2.8,5.9,4.6,8.7c0.2-5.9-0.3-11.7-0.1-17.6c2.2,0,4.4,0,6.6,0c0,10.6,0,21,0,31.6
			c-1,0.4-2,0.2-3,0.2s-1.9,0-3,0c-3.1-5.9-6.1-11.7-9.2-17.6C762.6,158,762.5,158.1,762.3,158.1z"/>
		<path class="st4" d="M778.1,92.4c-2.5,0-4.9,0-7.5,0c-0.1-2.2,0-4.3-0.1-6.5c0-2.1,0-4.2,0-6.5c-2.4-0.1-4.6,0-7,0
			c-0.2,4.4,0,8.6-0.1,13.1c-1.2,0-2.5,0-3.7,0s-2.4,0-3.6,0c-0.3-1.2-0.5-28.3-0.2-31.7c1.2-0.3,2.4-0.1,3.6-0.1c1.2,0,2.4,0,3.8,0
			c0.2,1.5,0.1,2.9,0.1,4.3c0,1.4,0,2.9,0,4.3s0,2.9,0,4.4c2.4,0,4.6,0,6.9,0c0.2-1.4,0.1-2.9,0.1-4.3s0-2.8,0-4.2
			c0-1.4,0-2.9,0-4.3c1.2-0.3,5.6-0.4,7.6-0.1C778.1,71.3,778.1,81.8,778.1,92.4z"/>
		<path class="st4" d="M721.6,160.4c-0.1-3.1,0.4-6.5,1.7-9.6c1.4-3.4,3.6-6.2,7.4-7.2c3.6-1,7.1-1,10.3,1.2c1.8,1.2,3,2.9,3.7,4.8
			c1.4,3.4,1.7,7,1.5,10.6c-0.2,2.8-0.6,5.6-1.7,8.2c-1.6,3.7-4,6.6-8.1,7.5c-3.3,0.8-6.5,0.6-9.5-1.3c-1.9-1.3-3.1-3-3.9-5.1
			C721.9,166.6,721.6,163.6,721.6,160.4z M729.3,158.8c-0.1,2.3,0.1,4.7,0.6,7c0.3,1.4,0.8,2.6,1.8,3.6c1.6,1.5,4,1.3,5.2-0.6
			c0.5-0.8,0.8-1.7,1-2.7c0.4-1.6,0.3-3.2,0.4-4.8c0.2-2.4,0-4.9-0.4-7.3c-0.3-1.4-0.7-2.7-1.6-3.8c-1.8-2-4.5-1.8-5.8,0.6
			c-0.3,0.6-0.5,1.3-0.7,1.9C729.4,154.8,729.3,156.8,729.3,158.8z"/>
		<path class="st4" d="M746.2,117.4c0.1,3.1-0.4,6.4-1.7,9.6c-1.5,3.7-4,6.6-8.1,7.5c-3.4,0.8-6.6,0.6-9.6-1.4
			c-1.9-1.3-3-3.1-3.8-5.2c-0.7-1.8-1.1-3.7-1.2-5.6c-0.3-4.3-0.1-8.6,1.5-12.7c2.1-5.5,6.2-8.2,11.9-8.1c4.7,0.1,8.3,2.8,9.8,7.2
			C745.9,111.4,746.3,114.2,746.2,117.4z M738.6,118.5c0.1-1.6-0.2-3.2-0.4-4.8c-0.2-1.6-0.6-3.1-1.5-4.5c-1.7-2.6-4.9-2.4-6.2,0.4
			c-0.5,1.1-0.8,2.3-0.9,3.5c-0.2,2.9-0.4,5.7,0,8.6c0.3,1.9,0.6,3.8,1.7,5.4c1.5,2.2,5,2.2,6.1-0.4c0.3-0.6,0.5-1.2,0.6-1.8
			C738.5,122.8,738.4,120.7,738.6,118.5z"/>
		<path class="st4" d="M707.5,143.4c0.3,0.5,0.3,0.9,0.3,1.2c0.1,1.8,0.2,3.7,0.3,5.7c-1.1,0-2.2,0-3.2,0c-1.9,0-3.7,0.1-5.5,0.6
			c-2.9,0.8-4.5,2.6-5,5.6s-0.3,5.9,0.7,8.8c1.1,3.3,4.9,5.3,8,4.8c0.3-3.4-0.4-6.8-0.2-10.1c1.2-0.3,5-0.3,6.5-0.1
			c0.2,1.2,0.3,13,0.1,15.1c-0.9,0.5-1.9,0.6-2.9,0.7c-3.4,0.5-6.8,0.6-10.1-0.4c-4.6-1.3-7.6-4.1-9-8.6c-1.3-4.2-1.2-8.5,0.1-12.7
			c1.1-3.4,3.4-6,6.6-7.7c2.7-1.5,5.6-2.3,8.6-2.6C704.3,143.5,705.9,143.1,707.5,143.4z"/>
		<path class="st4" d="M811.4,175.1c-4.5,1-9.1,1.4-13.7,0c-3.8-1.2-6.5-3.6-7.9-7.3c-1.8-4.6-1.7-9.4-0.2-14
			c1.3-3.9,4.1-6.5,7.8-8.2c3.8-1.7,7.7-2.3,11.8-2.3c0.1,0,0.2,0.1,0.4,0.2c0.1,2.2,0.3,4.4,0.5,6.8c-1.1,0-2.1,0-3.1,0
			c-1.9,0-3.8,0-5.7,0.6c-2.9,0.8-4.6,2.7-5,5.7c-0.4,2.9-0.2,5.7,0.6,8.5c1,3.3,4.6,5.4,8,5c0.3-3.4-0.3-6.8-0.2-10.1
			c1.1-0.3,4.5-0.4,6.5-0.1C811.6,161,811.7,173.5,811.4,175.1z"/>
		<path class="st4" d="M796.9,66.3c-2.2,0-4.2,0-6.5,0c-0.2-1.9,0-3.7-0.1-5.6c7.1,0,14,0,21,0c0.2,1.8,0,3.6,0.1,5.5
			c-2.2,0.2-4.4,0-6.7,0.2c-0.2,3.4-0.1,6.8-0.1,10.2c0,3.3,0,6.7,0,10.2c2.4,0,4.7,0,7.1,0c-0.4,1.9-0.2,3.8-0.6,5.5
			c-1.2,0.2-18.5,0.3-20.7,0.1c-0.2-1.8-0.1-3.5-0.1-5.5c2.3,0,4.4,0,6.5,0C797.2,85.5,797.3,68,796.9,66.3z"/>
		<path class="st4" d="M723.6,92.7c0-2.1,0-4.1,0-6c0.4-0.4,0.9-0.3,1.3-0.3c2,0,3.9,0,5.9,0c1.4,0,2.8-0.2,4.1-0.6
			c0.5-0.1,0.9-0.3,1.3-0.6c0.9-0.6,1.2-1.6,0.7-2.7c-0.3-0.7-0.9-1.3-1.6-1.8c-1.1-0.7-2.3-1.4-3.4-2.1c-1.9-1.1-3.8-2.1-5.5-3.4
			c-4.5-3.3-3.4-8.2,0-11.1c2.1-1.7,4.5-2.6,7-3.2c2.9-0.6,5.9-0.9,9-0.6c0.4,2.1,0.4,4.2,0.4,6.4c-1.6,0.1-3.1,0-4.6-0.1
			c-1.8-0.1-3.5,0-5.2,0.4c-2.1,0.6-2.4,2.2-0.9,3.7c1,1,2.3,1.7,3.5,2.4c2.2,1.2,4.4,2.4,6.3,4c0.4,0.4,0.9,0.8,1.3,1.2
			c2.4,2.6,2.2,5.9,0.2,8.6c-1.7,2.3-4.1,3.5-6.7,4.3c-4.1,1.3-8.3,1.5-12.6,1.4C723.9,92.8,723.8,92.8,723.6,92.7z"/>
		<path class="st4" d="M711.3,66.8c-2.7,0-5.4,0-8.2,0c-0.2,1.5-0.1,2.9-0.1,4.3s0,2.8,0,4.2c0,1.4,0,2.9,0,4.3s0,2.8,0,4.2
			c0,1.4,0,2.9,0,4.3s0,2.8,0,4.3c-1.3,0-2.5,0-3.7,0s-2.4,0-3.8,0c0-8.5,0-17,0-25.6c-3,0-5.7,0-8.6,0c0-1.2,0-2.2,0-3.1
			c0.1-1,0.2-2,0.4-3.1c8,0,16,0,24,0C711.3,62.7,711.3,64.7,711.3,66.8z"/>
		<path class="st4" d="M779.1,128.1c-0.3,2.1-0.3,4.1-0.7,6.1c-6.7,0-13.3,0-19.9,0c-0.3-1.6-0.2-30.3,0-31.7c2.3,0,4.6,0,7,0
			l0.1,0.1l0.1,0.1c0,0.1,0,0.2,0,0.3c0,0.1,0,0.2,0,0.3c0,8.1,0,16.2,0,24.3c0,0,0,0.1,0.1,0.4
			C770.2,128.1,774.6,127.9,779.1,128.1z"/>
		<path class="st4" d="M811.7,193.5c0.2,0.4,0.2,0.7,0.1,1c-1.2,0.3-178.8,0.4-181.7,0.1c-0.3-0.3-0.2-0.6-0.1-1.1
			C690.5,193.5,751.1,193.5,811.7,193.5z"/>
		<path class="st4" d="M635.1,211.5c1.1-3.4,2.2-6.8,3.3-10.2c0.6-0.2,1.1-0.2,1.8-0.1c1.1,3.4,2.3,6.9,3.4,10.3c0.1,0,0.2,0,0.3,0
			c1-3.4,2-6.9,2.9-10.3c0.6-0.2,1.1-0.2,1.8,0c-1.4,4.5-2.7,8.9-4,13.3c-0.5,0.3-0.9,0.2-1.5,0.2c-1.2-3.5-2.4-7.1-3.7-10.7
			c-0.1,0-0.2,0-0.3,0c-1.2,3.5-2.4,7.1-3.6,10.6c-0.5,0.3-0.9,0.2-1.5,0.1c-1.3-4.3-2.6-8.6-3.9-13c0.4-0.5,0.9-0.6,1.6-0.5
			c1,3.4,2,6.8,3,10.3C634.9,211.5,635,211.5,635.1,211.5z"/>
		<path class="st4" d="M714.9,211.1c0-1.6,0-3.3,0-4.9c0-1.6,0-3.2,0-4.7c0.5-0.4,1-0.3,1.5-0.1c0,4.4,0,8.8,0,13.2
			c-0.3,0.4-0.7,0.2-1.3,0.2c-2.4-3.4-4.9-6.9-7.3-10.3c-0.4,3.4-0.3,6.8-0.3,10.1c-0.5,0.3-0.9,0.3-1.4,0.1c0-4.4,0-8.9,0-13.3
			c0.5-0.3,0.9-0.1,1.4-0.2C709.9,204.5,712.2,208,714.9,211.1z"/>
		<path class="st4" d="M760.3,208.9c1.3,1.9,2.6,3.7,3.8,5.4c-0.5,0.4-1,0.5-1.7,0.5c-1.3-1.8-2.6-3.7-4-5.5c-0.5-0.3-1-0.2-1.6-0.1
			c0,1.9,0,3.7,0,5.3c-0.2,0.2-0.2,0.3-0.3,0.3c-0.4,0.1-0.8,0.1-1.2,0c-0.4-0.3-0.5-10.6-0.1-13.4c2-0.2,4-0.3,5.9,0.4
			c1.2,0.4,2,1.4,2.1,2.8c0.1,1.5-0.2,2.7-1.5,3.6C761.3,208.4,760.8,208.6,760.3,208.9z M756.8,207.5c1.2,0,2.2,0.2,3.1-0.2
			c1-0.4,1.5-1.1,1.5-2.2c0-1.1-0.5-1.8-1.6-2.1c-1-0.3-1.9-0.4-3-0.1C756.7,204.5,756.8,205.9,756.8,207.5z"/>
		<path class="st4" d="M699.5,201.3c0.6-0.1,1-0.1,1.6,0.1c0,2.6,0,5.1,0,7.7c0,0.6-0.1,1.3-0.2,1.9c-0.5,3.1-2.8,4.3-5.5,4.1
			c-3-0.2-4.7-1.9-4.8-4.9c-0.1-2.9,0-5.7,0-8.6c0.5-0.4,0.9-0.3,1.4-0.2c0.1,0.1,0.2,0.3,0.2,0.4c0,2.2,0,4.5,0,6.7
			c0,0.9,0.1,1.7,0.3,2.5c0.4,1.6,1.4,2.4,2.9,2.4c2,0.1,3-0.5,3.6-2.2c0.2-0.7,0.3-1.4,0.3-2c0-2.1,0-4.2,0-6.2
			C699.3,202.4,699.2,201.9,699.5,201.3z"/>
		<path class="st4" d="M749.4,207.1c0.3,0.5,0.4,0.9,0.1,1.4c-1.3,0-2.7,0-4.2,0c-0.1,1.6-0.1,3.1,0,4.8c1.9,0,3.6,0,5.4,0
			c0.4,0.6,0.3,1,0.1,1.5c-2.4,0-4.8,0-7.2,0c-0.3-1.1-0.4-11-0.1-13.5c1.1,0,2.3,0,3.4,0c1.2,0,2.3,0,3.5,0c0.3,0.5,0.3,1,0,1.6
			c-1.6,0-3.3,0-5.1,0c-0.2,1.4-0.1,2.6-0.1,4C746.6,207.1,748,206.8,749.4,207.1z"/>
		<path class="st4" d="M727.5,201.6c0.5-0.4,1-0.5,1.7-0.5c1.4,3.6,2.7,7.2,4.2,11.1c1.1-2,1.6-3.9,2.3-5.7c0.7-1.8,1.3-3.6,2-5.3
			c0.6-0.2,1.1-0.2,1.8-0.1c-1.7,4.5-3.5,9-5.2,13.3c-0.6,0.3-1,0.1-1.7,0.2C730.9,210.5,729.2,206.1,727.5,201.6z"/>
		<path class="st4" d="M679.6,202c-0.1,0.5-0.2,0.9-0.3,1.2c-0.2,0.2-0.4,0.2-0.5,0.1c-0.9-0.5-1.9-0.7-2.9-0.6
			c-0.8,0.1-1.4,0.5-1.6,1.3c-0.2,0.8,0,1.5,0.7,2c0.5,0.4,1.1,0.7,1.6,1c0.8,0.4,1.6,0.8,2.3,1.3c1.2,1,1.7,2.5,1.3,4
			c-0.5,1.5-1.6,2.3-3.2,2.5c-1.5,0.2-3.1,0.1-4.5-0.7c-0.2-0.5-0.1-1,0.1-1.5c0.5-0.2,0.8,0.2,1.2,0.3c0.9,0.4,1.9,0.5,3,0.4
			c0.9-0.1,1.5-0.5,1.7-1.4s0.2-1.7-0.6-2.3c-0.4-0.3-0.9-0.6-1.4-0.8c-0.8-0.4-1.6-0.8-2.4-1.3c-1.3-0.8-1.8-2-1.6-3.4
			s1-2.4,2.4-2.7C676.5,201,678.1,200.9,679.6,202z"/>
		<path class="st4" d="M767.5,214c-0.2-0.5-0.1-1,0.3-1.6c1.1,0.6,2.4,1.1,3.7,0.9c1.1-0.1,1.7-0.6,2-1.5s0-1.8-0.9-2.4
			c-0.5-0.4-1.1-0.6-1.7-0.9c-0.7-0.4-1.4-0.7-2.1-1.2c-1.3-1-1.7-2.4-1.2-4c0.4-1.2,1.3-1.8,2.4-2.1c1.5-0.3,3.1-0.4,4.4,0.6
			c0.1,0.5-0.1,1-0.4,1.5c-0.9-0.4-1.8-0.8-2.9-0.7c-1,0.1-1.8,0.5-2,1.3c-0.3,0.8,0,1.6,0.9,2.2c0.7,0.4,1.4,0.8,2.1,1.2
			c0.6,0.3,1.1,0.6,1.6,1c1.4,1,1.6,2.4,1.3,4c-0.3,1.4-1.6,2.4-3.1,2.6C770.5,215,768.9,215,767.5,214z"/>
		<path class="st4" d="M808.7,201.3c0.7,0,1.2-0.2,1.8,0.1c-1.2,2-2.4,4.1-3.7,6c-0.9,1.3-1.3,2.6-1.2,4.2c0.1,1,0,2,0,3
			c-0.5,0.5-1.1,0.2-1.6,0.3c-0.3-1.1-0.2-2.3-0.1-3.3c0.1-1.5-0.3-2.8-1.2-4c-1.3-1.9-2.4-3.9-3.6-5.8c0.5-0.4,1-0.5,1.7-0.4
			c1.3,2.1,2.5,4.2,3.9,6.6C806.2,205.5,807.4,203.4,808.7,201.3z"/>
		<path class="st4" d="M791.9,214.6c-0.6,0.3-1.1,0.2-1.7,0.1c0-1.9,0-3.9,0-5.8c0-2,0-3.9,0-5.9c-1.4-0.5-2.9,0-4.2-0.3
			c-0.4-0.4-0.2-0.9-0.1-1.4c3.4,0,6.8,0,10.1,0c0.3,0.4,0.3,0.9,0.1,1.5c-1.3,0-2.6,0-4.1,0C791.9,206.9,791.9,210.8,791.9,214.6z"
			/>
		<path class="st4" d="M653.5,56.8c-2.1,0-3.9,0-5.8,0c-0.2-1.9-0.1-3.7-0.1-5.6c1-0.4,1.9-0.1,2.8-0.2c1,0,1.9,0,2.9,0
			c0.4,1,0.1,1.9,0.2,2.9C653.5,54.8,653.5,55.7,653.5,56.8z"/>
		<path class="st4" d="M663.1,214.6c0-2,0-4,0-6c0-1.9,0-3.8,0-5.6c-0.8-0.5-1.5-0.3-2.2-0.3s-1.4,0-2,0c-0.3-0.5-0.3-1-0.1-1.5
			c3.3,0,6.7,0,10,0c0.4,0.4,0.3,0.9,0.2,1.4c-1.3,0.3-2.7-0.1-4.2,0.3c0,3.9,0,7.8,0,11.5C664.3,215,663.8,214.8,663.1,214.6z"/>
		<path class="st4" d="M781.5,201.5c0,4.3,0,8.8,0,13.2c-0.2,0.1-0.4,0.1-0.5,0.1c-0.3,0-0.6,0-0.9,0c-0.3-1.3-0.4-10.4-0.1-13.4
			c0.2-0.3,0.5-0.2,0.7-0.2C780.9,201.1,781.2,201.1,781.5,201.5z"/>
		<path class="st4" d="M652.9,201.4c0.6-0.3,1.1-0.2,1.6-0.1c0,4.5,0,8.9,0,13.3c-0.5,0.3-0.9,0.2-1.5,0.1
			C652.8,210.3,652.9,205.9,652.9,201.4z"/>
		<path class="st4" d="M723.2,201.4c0,4.5,0,8.9,0,13.2c-0.5,0.4-0.9,0.2-1.4,0.2c-0.3-0.3-0.4-10.2-0.2-13.3
			C722.1,201.1,722.6,201.1,723.2,201.4z"/>
	</g>
	<g>
		<g>
			<path class="st8" d="M118,250.1c0,3.6-1,6.4-2.9,8.2c-2,1.8-5.1,2.7-9.4,2.7c-4.2,0-7.3-0.9-9.3-2.7c-2-1.8-3-4.5-3-8.1h7.3
				c0,3.1,1.7,4.7,5,4.7s5-1.6,5-4.7v-4.8H103v-6.2h15V250.1z"/>
			<path class="st8" d="M127.2,259.8c-2.1-0.9-3.6-2.1-4.7-3.8c-1.1-1.7-1.6-3.7-1.6-6.1c0-2.4,0.5-4.4,1.6-6
				c1.1-1.7,2.7-2.9,4.7-3.8c2.1-0.9,4.5-1.3,7.4-1.3c2.9,0,5.4,0.4,7.4,1.3c2.1,0.9,3.6,2.1,4.7,3.8c1.1,1.7,1.6,3.7,1.6,6
				c0,2.4-0.5,4.4-1.6,6.1s-2.7,2.9-4.7,3.8c-2.1,0.9-4.5,1.3-7.4,1.3C131.8,261.1,129.3,260.6,127.2,259.8z M140.8,249.9
				c0-1.5-0.5-2.7-1.4-3.6s-2.5-1.3-4.8-1.3c-2.2,0-3.8,0.4-4.8,1.3c-0.9,0.9-1.4,2.1-1.4,3.6c0,3.3,2.1,5,6.2,5
				C138.8,254.9,140.8,253.1,140.8,249.9z"/>
			<path class="st8" d="M176.2,254.6c0,1.8-0.6,3.2-1.8,4.3c-1.2,1-3,1.6-5.5,1.6h-17.6v-21.1h16.4c2.6,0,4.5,0.5,5.6,1.3
				c1.1,0.9,1.7,2.2,1.7,3.8c0,1.2-0.3,2.2-1,3c-0.6,0.8-1.5,1.4-2.7,1.8C174.6,250.1,176.2,252,176.2,254.6z M158.7,244.6v3h6.7
				c0.6,0,1,0,1.3-0.1c0.3,0,0.5-0.2,0.7-0.4c0.2-0.2,0.3-0.6,0.3-1.1s-0.1-0.8-0.3-1.1c-0.2-0.2-0.4-0.3-0.7-0.4
				c-0.3,0-0.7-0.1-1.3-0.1h-6.7V244.6z M166.6,255.1c0.5,0,0.8,0,1.1-0.1c0.3,0,0.5-0.2,0.6-0.4c0.2-0.2,0.3-0.6,0.3-1
				c0-0.5-0.1-0.8-0.3-1c-0.2-0.2-0.4-0.4-0.6-0.4c-0.3,0-0.6-0.1-1.1-0.1h-7.9v3H166.6z"/>
			<path class="st8" d="M204.1,250.1c0,3.6-1,6.3-3.1,8.1c-2.1,1.8-5.3,2.7-9.8,2.7s-7.7-0.9-9.8-2.7c-2.1-1.8-3.1-4.5-3.1-8.2
				v-10.8h7.3v10.5c0,1.5,0.4,2.7,1.2,3.6s2.3,1.4,4.3,1.4c2.1,0,3.5-0.5,4.3-1.4s1.2-2.1,1.2-3.6v-10.5h7.3v10.9H204.1z"/>
			<path class="st8" d="M231.4,253.3c0.7,0.7,1,1.7,1,2.9v4.2h-7.3v-3c0-0.9-0.2-1.6-0.5-1.9c-0.3-0.3-0.9-0.5-1.9-0.5h-8.2v5.4
				h-7.2v-21.1h16.4c2.9,0,5.1,0.6,6.5,1.7c1.5,1.2,2.2,2.9,2.2,5.1c0,1.6-0.3,2.9-1,3.8c-0.7,1-1.6,1.7-2.9,2.1
				C229.8,252.3,230.7,252.6,231.4,253.3z M214.6,245.1v4h7.3c0.7,0,1.2,0,1.6-0.1c0.4-0.1,0.7-0.2,0.9-0.5c0.2-0.3,0.4-0.7,0.4-1.4
				c0-0.6-0.1-1.1-0.4-1.4c-0.2-0.3-0.5-0.5-0.9-0.5c-0.4-0.1-0.9-0.1-1.6-0.1H214.6z"/>
			<path class="st8" d="M236.8,243.8c1.1-1.7,2.7-2.9,4.7-3.8c2-0.8,4.3-1.2,6.9-1.2c2.4,0,4.5,0.4,6.3,1.1c1.8,0.7,3.3,1.7,4.4,2.9
				c1.1,1.3,1.6,2.7,1.7,4.3H253c-0.2-0.6-0.6-1.1-1.4-1.5s-1.8-0.7-3.2-0.7c-1.9,0-3.4,0.5-4.3,1.4c-0.9,0.9-1.4,2.2-1.4,3.8
				c0,1.7,0.5,3,1.5,3.9s2.7,1.4,5.1,1.4c1.1,0,2.1-0.1,3-0.3c0.9-0.2,1.8-0.5,2.6-0.8v-1.3h-6.6v-4.4h12.4v9.4
				c-2,1.1-4,1.9-5.8,2.3c-1.9,0.4-3.9,0.6-6.1,0.6c-2.8,0-5.2-0.4-7.2-1.3c-2.1-0.8-3.7-2.1-4.8-3.8c-1.1-1.7-1.7-3.7-1.7-6.1
				C235.1,247.5,235.7,245.4,236.8,243.8z"/>
		</g>
		<g>
			<path class="st8" d="M107.3,266.3v15.5h6.6v5.6H93.3v-5.6h6.6v-9.6l-5.1,1.5l-1.5-5.4l7.3-2.1h6.7V266.3z"/>
			<path class="st8" d="M140.7,281.2c0,2.2-1,3.9-2.9,5c-1.9,1.2-4.7,1.8-8.3,1.8c-3,0-5.3-0.3-7.2-0.8c-1.8-0.6-3.2-1.4-4.1-2.6
				s-1.5-2.7-1.7-4.6h7.3c0,1,0.4,1.7,1.2,2.1c0.8,0.4,2.1,0.7,3.9,0.7c1.5,0,2.6-0.2,3.2-0.5c0.6-0.3,0.9-0.9,0.9-1.6
				c0-0.5-0.2-0.9-0.5-1.2c-0.3-0.3-0.8-0.5-1.6-0.6s-1.9-0.2-3.5-0.2v-4.2c1.4,0,2.5-0.1,3.2-0.2c0.8-0.1,1.3-0.3,1.6-0.6
				c0.3-0.3,0.4-0.6,0.4-1.1c0-0.6-0.3-1.1-0.9-1.4c-0.6-0.3-1.6-0.5-3.1-0.5c-1.7,0-3,0.2-3.8,0.7s-1.2,1.3-1.2,2.4h-7
				c0.3-2.8,1.5-4.8,3.6-6.1c2.1-1.3,5.2-2,9.2-2c3.5,0,6.1,0.5,8,1.6c1.9,1.1,2.8,2.7,2.8,4.7c0,2.1-1.1,3.6-3.2,4.5
				C139.5,277.5,140.7,279,140.7,281.2z"/>
			<path class="st8" d="M155.9,280v-5h23.5v5H155.9z"/>
			<path class="st8" d="M216.7,276.1c-1,1-2.2,1.8-3.5,2.3s-3,1.1-5,1.6c-1.3,0.4-2.4,0.7-3.1,0.9c-0.7,0.3-1.1,0.6-1.4,0.9h14.2
				v5.6h-23v-3.2c0-1.6,0.5-2.9,1.5-3.9s2.1-1.8,3.4-2.4c1.3-0.6,3-1.2,5.1-1.9c1.3-0.4,2.3-0.7,3.1-1s1.4-0.6,1.9-1
				s0.7-0.8,0.7-1.3c0-0.6-0.2-1.1-0.7-1.4s-1.3-0.5-2.5-0.5c-3,0-4.5,1-4.5,3.1h-7.6c0.3-2.8,1.5-4.8,3.8-6.1c2.2-1.3,5.1-2,8.6-2
				c3.3,0,5.9,0.6,7.8,1.7c1.9,1.1,2.8,2.7,2.8,4.8C218.2,273.8,217.7,275.1,216.7,276.1z"/>
			<path class="st8" d="M235.3,266.3v15.5h6.6v5.6h-20.5v-5.6h6.6v-9.6l-5.1,1.5l-1.5-5.4l7.3-2.1h6.6L235.3,266.3L235.3,266.3z"/>
			<path class="st8" d="M262.9,286.7c-2.1-0.9-3.6-2.1-4.7-3.8c-1.1-1.7-1.6-3.7-1.6-6.1s0.5-4.4,1.6-6c1.1-1.7,2.7-2.9,4.7-3.8
				c2.1-0.9,4.5-1.3,7.4-1.3s5.4,0.4,7.4,1.3c2.1,0.9,3.6,2.1,4.7,3.8c1.1,1.7,1.6,3.7,1.6,6c0,2.4-0.5,4.4-1.6,6.1
				s-2.7,2.9-4.7,3.8c-2.1,0.9-4.5,1.3-7.4,1.3S265,287.6,262.9,286.7z M276.5,276.9c0-1.5-0.5-2.7-1.4-3.6s-2.5-1.3-4.8-1.3
				c-2.2,0-3.8,0.4-4.8,1.3c-0.9,0.9-1.4,2.1-1.4,3.6c0,3.3,2.1,5,6.2,5C274.5,281.9,276.5,280.2,276.5,276.9z"/>
			<path class="st8" d="M290.1,268.6c2.2-1.9,5.4-2.8,9.5-2.8c3.8,0,6.8,0.8,9,2.3s3.5,3.8,3.8,6.7h-7.8c-0.2-0.8-0.7-1.5-1.5-2
				c-0.8-0.6-2-0.9-3.5-0.9c-1.8,0-3.1,0.5-4,1.4s-1.3,2.1-1.3,3.6s0.4,2.7,1.3,3.6s2.2,1.4,4,1.4c1.5,0,2.6-0.3,3.5-0.9
				c0.8-0.6,1.3-1.3,1.5-2.1h7.8c-0.3,3-1.6,5.2-3.8,6.8s-5.2,2.3-9,2.3c-4.1,0-7.3-0.9-9.5-2.8s-3.4-4.7-3.4-8.3
				C286.8,273.2,287.9,270.4,290.1,268.6z"/>
			<path class="st8" d="M339.7,266.3v6.2h-8.9v15h-7.3v-15h-8.9v-6.2H339.7z"/>
			<path class="st8" d="M348.1,286.7c-2.1-0.9-3.6-2.1-4.7-3.8c-1.1-1.7-1.6-3.7-1.6-6.1s0.5-4.4,1.6-6c1.1-1.7,2.7-2.9,4.7-3.8
				c2.1-0.9,4.5-1.3,7.4-1.3s5.4,0.4,7.4,1.3c2.1,0.9,3.6,2.1,4.7,3.8c1.1,1.7,1.6,3.7,1.6,6c0,2.4-0.5,4.4-1.6,6.1
				s-2.7,2.9-4.7,3.8c-2.1,0.9-4.5,1.3-7.4,1.3C352.7,288,350.2,287.6,348.1,286.7z M361.7,276.9c0-1.5-0.5-2.7-1.4-3.6
				s-2.5-1.3-4.8-1.3c-2.2,0-3.8,0.4-4.8,1.3c-0.9,0.9-1.4,2.1-1.4,3.6c0,3.3,2.1,5,6.2,5C359.7,281.9,361.7,280.2,361.7,276.9z"/>
			<path class="st8" d="M397.1,281.6c0,1.8-0.6,3.2-1.8,4.3c-1.2,1-3,1.6-5.5,1.6h-17.5v-21.1h16.4c2.6,0,4.5,0.5,5.6,1.3
				c1.1,0.9,1.7,2.2,1.7,3.8c0,1.2-0.3,2.2-1,3s-1.5,1.4-2.7,1.8C395.5,277.2,397.1,278.9,397.1,281.6z M379.6,271.6v3h6.7
				c0.6,0,1,0,1.3-0.1c0.3,0,0.5-0.2,0.7-0.4c0.2-0.2,0.3-0.6,0.3-1.1s-0.1-0.8-0.3-1.1c-0.2-0.2-0.4-0.3-0.7-0.4
				c-0.3,0-0.7-0.1-1.3-0.1h-6.7V271.6z M387.5,282.2c0.5,0,0.8,0,1.1-0.1s0.5-0.2,0.6-0.4c0.2-0.2,0.3-0.6,0.3-1
				c0-0.5-0.1-0.8-0.3-1c-0.2-0.2-0.4-0.4-0.6-0.4c-0.3,0-0.6-0.1-1.1-0.1h-7.9v3H387.5z"/>
			<path class="st8" d="M421.3,266.3v5.6h-14.4v2.2h13.8v5.6h-13.8v2.2h14.4v5.6h-21.7v-21.1h21.7V266.3z"/>
			<path class="st8" d="M448.7,280.3c0.7,0.7,1,1.7,1,2.9v4.2h-7.3v-3c0-0.9-0.2-1.6-0.5-1.9S441,282,440,282h-8.2v5.4h-7.3v-21.1
				h16.4c2.9,0,5.1,0.6,6.5,1.7c1.5,1.2,2.2,2.9,2.2,5.1c0,1.6-0.3,2.9-1,3.8c-0.7,1-1.6,1.7-2.9,2.1
				C447,279.2,448,279.6,448.7,280.3z M431.9,272.2v4h7.3c0.7,0,1.2,0,1.6-0.1s0.7-0.2,0.9-0.5c0.2-0.3,0.4-0.7,0.4-1.4
				c0-0.6-0.1-1.1-0.4-1.4c-0.2-0.3-0.5-0.5-0.9-0.5c-0.4-0.1-0.9-0.1-1.6-0.1H431.9z"/>
		</g>
	</g>
	<g>
		<path class="st8" d="M649,252.6c0.7,0.7,1,1.7,1,2.9v4.2h-7.3v-3c0-0.9-0.2-1.6-0.5-1.9s-0.9-0.5-1.9-0.5h-8.1v5.4H625v-21h16.3
			c2.9,0,5,0.6,6.5,1.7c1.5,1.2,2.2,2.8,2.2,5.1c0,1.6-0.3,2.8-1,3.8c-0.7,1-1.6,1.7-2.9,2.1C647.3,251.5,648.3,251.9,649,252.6z
			 M632.3,244.5v4h7.3c0.7,0,1.2,0,1.6-0.1c0.4-0.1,0.7-0.2,0.9-0.5c0.2-0.3,0.4-0.7,0.4-1.4s-0.1-1.1-0.4-1.4
			c-0.2-0.3-0.5-0.5-0.9-0.5c-0.4-0.1-0.9-0.1-1.6-0.1H632.3z"/>
		<path class="st8" d="M674.4,238.7v5.5h-14.3v2.2h13.7v5.5h-13.7v2.2h14.3v5.5h-21.6v-21H674.4z"/>
		<path class="st8" d="M678,243.1c1.1-1.7,2.7-2.9,4.7-3.7c2-0.8,4.3-1.2,6.8-1.2c2.4,0,4.5,0.3,6.3,1s3.3,1.7,4.3,2.9
			c1.1,1.3,1.6,2.7,1.7,4.3h-7.8c-0.2-0.6-0.6-1.1-1.4-1.5c-0.7-0.4-1.8-0.7-3.2-0.7c-1.9,0-3.3,0.5-4.3,1.4
			c-0.9,0.9-1.4,2.2-1.4,3.8c0,1.7,0.5,3,1.5,3.9c1,0.9,2.7,1.4,5.1,1.4c1.1,0,2.1-0.1,3-0.3c0.9-0.2,1.8-0.5,2.6-0.8v-1.3h-6.5V248
			h12.4v9.4c-2,1.1-3.9,1.9-5.8,2.3c-1.9,0.4-3.9,0.6-6.1,0.6c-2.7,0-5.1-0.4-7.2-1.3c-2.1-0.8-3.7-2.1-4.8-3.7
			c-1.1-1.7-1.7-3.7-1.7-6.1C676.3,246.7,676.8,244.7,678,243.1z"/>
		<path class="st8" d="M704.3,238.7h7.3v21h-7.3V238.7z"/>
		<path class="st8" d="M721.4,252.8c0,1.5,1.9,2.2,5.7,2.2c1.4,0,2.5-0.1,3.3-0.2c0.7-0.1,1.3-0.3,1.5-0.5c0.3-0.2,0.4-0.5,0.4-0.8
			c0-0.4-0.1-0.7-0.4-0.9c-0.3-0.2-0.8-0.3-1.6-0.5c-0.8-0.1-2.1-0.3-4-0.4c-2.9-0.2-5.2-0.6-6.9-1.1c-1.8-0.5-3.1-1.3-3.9-2.2
			c-0.9-1-1.3-2.2-1.3-3.8c0-2.1,1.1-3.7,3.2-4.8c2.1-1.1,5-1.7,8.7-1.7c4.1,0,7.3,0.6,9.5,1.8c2.2,1.2,3.4,3,3.5,5.3h-7.6
			c0-0.7-0.4-1.2-1.3-1.5c-0.9-0.3-2.3-0.4-4.1-0.4c-1.7,0-2.8,0.1-3.4,0.3c-0.6,0.2-0.9,0.5-0.9,0.9c0,0.3,0.1,0.6,0.4,0.8
			c0.3,0.2,0.8,0.3,1.6,0.5c0.8,0.1,2,0.3,3.7,0.4c3,0.3,5.4,0.6,7,0.9c1.7,0.4,3,1,4,1.9c1,0.9,1.5,2.3,1.5,4.1
			c0,2.5-1,4.4-3.1,5.4c-2.1,1.1-5.2,1.6-9.3,1.6c-4.4,0-7.7-0.6-10-1.8c-2.3-1.2-3.5-3.1-3.6-5.7H721.4z"/>
		<path class="st8" d="M765.7,238.7v6.1h-8.9v14.9h-7.3v-14.9h-8.9v-6.1H765.7z"/>
		<path class="st8" d="M789.5,238.7v5.5h-14.3v2.2h13.7v5.5h-13.7v2.2h14.3v5.5h-21.6v-21H789.5z"/>
		<path class="st8" d="M815.9,252.6c0.7,0.7,1,1.7,1,2.9v4.2h-7.3v-3c0-0.9-0.2-1.6-0.5-1.9c-0.3-0.3-0.9-0.5-1.9-0.5h-8.1v5.4h-7.3
			v-21h16.3c2.9,0,5,0.6,6.5,1.7c1.5,1.2,2.2,2.8,2.2,5.1c0,1.6-0.3,2.8-1,3.8c-0.7,1-1.6,1.7-2.9,2.1
			C814.3,251.5,815.2,251.9,815.9,252.6z M799.2,244.5v4h7.3c0.7,0,1.2,0,1.6-0.1c0.4-0.1,0.7-0.2,0.9-0.5c0.2-0.3,0.4-0.7,0.4-1.4
			s-0.1-1.1-0.4-1.4c-0.2-0.3-0.5-0.5-0.9-0.5c-0.4-0.1-0.9-0.1-1.6-0.1H799.2z"/>
		<path class="st8" d="M645.8,279.9V266h7.3v21h-10.8l-10-13.9V287H625v-21h10.8L645.8,279.9z"/>
		<path class="st8" d="M661.5,286.3c-2-0.9-3.6-2.1-4.7-3.8c-1.1-1.7-1.6-3.7-1.6-6c0-2.4,0.5-4.4,1.6-6c1.1-1.7,2.6-2.9,4.7-3.8
			c2-0.9,4.5-1.3,7.4-1.3c2.9,0,5.3,0.4,7.4,1.3c2.1,0.9,3.6,2.1,4.7,3.8c1.1,1.7,1.6,3.6,1.6,6c0,2.4-0.5,4.4-1.6,6
			c-1.1,1.7-2.6,2.9-4.7,3.8c-2.1,0.9-4.5,1.3-7.4,1.3C666.1,287.6,663.6,287.2,661.5,286.3z M675.1,276.5c0-1.5-0.5-2.7-1.4-3.6
			c-0.9-0.9-2.5-1.3-4.7-1.3s-3.8,0.4-4.7,1.3c-0.9,0.9-1.4,2.1-1.4,3.6c0,3.3,2,5,6.1,5C673,281.5,675.1,279.8,675.1,276.5z"/>
		<path class="st8" d="M715.9,281.4l4.8-15.4h7.3l-6.8,21h-10.5l-5.5-15l-5.5,15h-10.5l-6.8-21h7.3l4.8,15.4l5.8-15.4h9.6
			L715.9,281.4z"/>
		<path class="st8" d="M730.5,266.6h7.6l-0.3,13.4h-7L730.5,266.6z M730.8,287v-5.2h7v5.2H730.8z"/>
	</g>
</g>
</svg>
